<?xml version="1.0" encoding="utf-8"?>
<!-- Generator: Adobe Illustrator 18.0.0, SVG Export Plug-In . SVG Version: 6.00 Build 0)  -->
<!DOCTYPE svg PUBLIC "-//W3C//DTD SVG 1.1//EN" "http://www.w3.org/Graphics/SVG/1.1/DTD/svg11.dtd">
<svg version="1.1" id="Layer_1" xmlns="http://www.w3.org/2000/svg" xmlns:xlink="http://www.w3.org/1999/xlink" x="0px" y="0px"
	 width="800px" height="800px" viewBox="0 0 800 800" enable-background="new 0 0 800 800" xml:space="preserve">
<g>
	<path fill="#08192A" d="M400,0C179.1,0,0,179.1,0,400c0,220.9,179.1,400,400,400c220.9,0,400-179.1,400-400
		C800,179.1,620.9,0,400,0z M400,766.7C197.8,766.7,33.3,602.2,33.3,400S197.8,33.3,400,33.3S766.7,197.8,766.7,400
		S602.2,766.7,400,766.7z"/>
	<path fill="#08192A" d="M416.6,393.1V150c0-9.2-7.4-16.7-16.7-16.7c-9.2,0-16.7,7.5-16.7,16.7v250c0,4.4,1.8,8.7,4.9,11.8l100,100
		c3.3,3.3,7.5,4.9,11.8,4.9s8.5-1.6,11.8-4.9c6.5-6.5,6.5-17.1,0-23.6L416.6,393.1z"/>
</g>
</svg>
