<?xml version="1.0" encoding="utf-8"?>
<!-- Generator: Adobe Illustrator 18.0.0, SVG Export Plug-In . SVG Version: 6.00 Build 0)  -->
<!DOCTYPE svg PUBLIC "-//W3C//DTD SVG 1.1//EN" "http://www.w3.org/Graphics/SVG/1.1/DTD/svg11.dtd">
<svg version="1.1" id="Layer_1" xmlns="http://www.w3.org/2000/svg" xmlns:xlink="http://www.w3.org/1999/xlink" x="0px" y="0px"
	 width="480px" height="480px" viewBox="0 0 480 480" enable-background="new 0 0 480 480" xml:space="preserve">
<path fill="#0D111E" d="M480,120c0-22.1-17.9-40-40-40H40C17.9,80,0,97.9,0,120v240c0,22.1,17.9,40,40,40h400c11,0,21-4.5,28.2-11.7
	c1.4-0.6,2.6-1.6,3.6-2.8c1-1.3,1.6-2.7,1.9-4.2c3.9-6.2,6.3-13.5,6.3-21.3V120z M318.5,250L460,136.8V360c0,1-0.4,1.8-0.6,2.7
	L318.5,250z M40,100h400c8.4,0,15.5,5.2,18.5,12.5c-0.1,0-0.1,0.1-0.2,0.1L240,287.2L21.5,112.4C24.5,105.1,31.7,100,40,100z
	 M20.6,362.7c-0.1-0.9-0.6-1.8-0.6-2.7V136.8L161.5,250L20.6,362.7z M40,380c-2.5,0-4.9-0.6-7.2-1.5l144.7-115.7l56.2,45
	c1.8,1.5,4,2.2,6.2,2.2s4.4-0.7,6.2-2.2l56.3-45l144.7,115.7c-2.2,0.9-4.6,1.5-7.2,1.5H40z"/>
</svg>
