<?xml version="1.0" encoding="utf-8"?>
<!-- Generator: Adobe Illustrator 18.0.0, SVG Export Plug-In . SVG Version: 6.00 Build 0)  -->
<!DOCTYPE svg PUBLIC "-//W3C//DTD SVG 1.1//EN" "http://www.w3.org/Graphics/SVG/1.1/DTD/svg11.dtd">
<svg version="1.1" id="Layer_1" xmlns="http://www.w3.org/2000/svg" xmlns:xlink="http://www.w3.org/1999/xlink" x="0px" y="0px"
	 width="800px" height="800px" viewBox="0 0 800 800" enable-background="new 0 0 800 800" xml:space="preserve">
<path d="M400,0C179.1,0,0,179.1,0,400s179.1,400,400,400s400-179.1,400-400S620.9,0,400,0z M499.6,752.6c0.1-34.2,0.2-87.4,0.3-116
	c0.1-27.3-4.8-52.9-25.2-74.6c17-3.3,32.9-5.7,48.3-9.6c46.6-11.7,86-34.3,107.2-79.4c24-51.2,30.3-104.9,10.6-159.2
	c-5.6-15.3-16.8-28.5-25-43c-1.7-3-3.1-7.4-2.2-10.4c9.1-30.8,6.5-61-3.9-91c-1.9-5.5-5-6.9-10.3-6.8c-18.6,0.5-35.9,6.2-52.3,14.2
	c-14.1,6.9-27.4,15.4-41.4,22.7c-3.4,1.8-8.2,2.8-11.7,2c-61.2-14.9-122.3-14.8-183.5,0c-3.8,0.9-9-0.5-12.5-2.6
	c-25.6-15.8-51.7-30.3-81.9-35.3c-2.7-0.4-5.6-0.4-8.3-0.9c-7.7-1.2-11.7,1.9-14.1,9.5c-9.2,29.6-11.6,59.2-2.4,89.3
	c0.8,2.6-0.2,6.7-2,8.8c-34.7,40.5-40.9,87.9-34.1,138.5c4.3,32.3,13.8,62.7,34.4,88.6c25.3,31.8,59.8,47.8,98.3,56.8
	c13.4,3.1,27,5.1,41.7,7.8c-13.1,14-19.8,30-23.2,47.6c-0.4,2.2-3.6,4.7-6,5.7c-43.7,18.3-82.2,6.2-107.4-33.6
	c-12.6-19.7-28.9-34.8-52.6-39.4c-6.4-1.2-13.5-0.4-20,0.8c-6.2,1.2-6.9,5.9-3,10.4c2.9,3.5,6.3,7,10.2,9.3
	c20.8,12.5,34.3,31.1,43.2,53c15,36.9,43.8,53,81.5,55.2c17.1,1,34.4-1.3,52.5-2.1c0,21.5,1.7,59.6,1.4,85.2
	C149.5,712.6,33.3,569.8,33.3,400C33.3,197.8,197.8,33.3,400,33.3S766.7,197.8,766.7,400C766.7,567.6,653.5,709,499.6,752.6z"/>
</svg>
