<?xml version="1.0" encoding="utf-8"?>
<!-- Generator: Adobe Illustrator 18.0.0, SVG Export Plug-In . SVG Version: 6.00 Build 0)  -->
<!DOCTYPE svg PUBLIC "-//W3C//DTD SVG 1.1//EN" "http://www.w3.org/Graphics/SVG/1.1/DTD/svg11.dtd">
<svg version="1.1" id="Layer_1" xmlns="http://www.w3.org/2000/svg" xmlns:xlink="http://www.w3.org/1999/xlink" x="0px" y="0px"
	 width="800px" height="800px" viewBox="0 0 800 800" enable-background="new 0 0 800 800" xml:space="preserve">
<g>
	<path fill="#08192A" d="M33.3,166.7h733.3c9.2,0,16.7-7.5,16.7-16.7s-7.5-16.7-16.7-16.7H33.3c-9.2,0-16.7,7.5-16.7,16.7
		S24.1,166.7,33.3,166.7z"/>
	<path fill="#08192A" d="M766.7,366.7H33.3c-9.2,0-16.7,7.5-16.7,16.7c0,9.2,7.5,16.7,16.7,16.7h733.3c9.2,0,16.7-7.5,16.7-16.7
		C783.3,374.1,775.9,366.7,766.7,366.7z"/>
	<path fill="#08192A" d="M766.7,600H33.3c-9.2,0-16.7,7.5-16.7,16.7c0,9.2,7.5,16.7,16.7,16.7h733.3c9.2,0,16.7-7.5,16.7-16.7
		C783.3,607.5,775.9,600,766.7,600z"/>
</g>
</svg>
