<?xml version="1.0" encoding="utf-8"?>
<!-- Generator: Adobe Illustrator 18.0.0, SVG Export Plug-In . SVG Version: 6.00 Build 0)  -->
<!DOCTYPE svg PUBLIC "-//W3C//DTD SVG 1.1//EN" "http://www.w3.org/Graphics/SVG/1.1/DTD/svg11.dtd">
<svg version="1.1" id="Layer_1" xmlns="http://www.w3.org/2000/svg" xmlns:xlink="http://www.w3.org/1999/xlink" x="0px" y="0px"
	 width="800px" height="800px" viewBox="0 0 800 800" enable-background="new 0 0 800 800" xml:space="preserve">
<path d="M400,0C179.1,0,0,179.1,0,400s179.1,400,400,400s400-179.1,400-400S620.9,0,400,0z M400,766.5
	C237.3,766.5,99.1,660,51.2,513h102c12.5,0,24.1-6.3,30.7-16.9l85.5-137.4l90,206.3c9,20.6,37.5,22.6,49.1,3.4l31.8-52.4h226.2
	c11.2,0,20.6-9.3,20.6-20.6v-42.5c0-15.3-12.6-27.9-27.9-27.9H514.8c-12.7,0-23.8-8.5-26.9-20.9l-9-35.9c-6-23.9-37.8-28.7-50.6-7.6
	l-6.7,11.1c-21,38.7-36.1,25.9-49.1-3.3l-67.8-155.5c-8.9-20.5-37.2-22.6-48.9-3.6L131.2,409.8c-5,8.1-13.9,13.2-23.5,13.2H34
	c-0.5-8-0.7-15.2-0.7-22.8C33.3,198,197.8,33.4,400,33.4S766.7,197.8,766.7,400S602.2,766.5,400,766.5z"/>
</svg>
