<?xml version="1.0" encoding="utf-8"?>
<!-- Generator: Adobe Illustrator 18.0.0, SVG Export Plug-In . SVG Version: 6.00 Build 0)  -->
<!DOCTYPE svg PUBLIC "-//W3C//DTD SVG 1.1//EN" "http://www.w3.org/Graphics/SVG/1.1/DTD/svg11.dtd">
<svg version="1.1" id="Layer_1" xmlns="http://www.w3.org/2000/svg" xmlns:xlink="http://www.w3.org/1999/xlink" x="0px" y="0px"
	 width="480px" height="480px" viewBox="0 0 480 480" enable-background="new 0 0 480 480" xml:space="preserve">
<path fill="#0D111E" d="M467.9,452l-136-136c29.8-33.6,48.1-77.6,48.1-126C380,85.1,294.9,0,190,0S0,85.1,0,190s85.1,190,190,190
	c48.4,0,92.5-18.3,126-48.1l136,136c2.2,2.2,5.1,3.3,7.9,3.3s5.8-1.1,7.9-3.3C472.3,463.6,472.3,456.4,467.9,452z M20,190
	C20,96.3,96.3,20,190,20s170,76.3,170,170c0,93.7-76.3,170-170,170S20,283.7,20,190z"/>
</svg>
