<?xml version="1.0" encoding="utf-8"?>
<!-- Generator: Adobe Illustrator 18.0.0, SVG Export Plug-In . SVG Version: 6.00 Build 0)  -->
<!DOCTYPE svg PUBLIC "-//W3C//DTD SVG 1.1//EN" "http://www.w3.org/Graphics/SVG/1.1/DTD/svg11.dtd">
<svg version="1.1" id="Layer_1" xmlns="http://www.w3.org/2000/svg" xmlns:xlink="http://www.w3.org/1999/xlink" x="0px" y="0px"
	 width="800px" height="800px" viewBox="0 0 800 800" enable-background="new 0 0 800 800" xml:space="preserve">
<g>
	<path d="M33.3,33.3l303.3,0.2l424.1,424.1l-303,303L33.6,336.7L33.3,33.3 M209.5,300c49.9,0,90.5-40.6,90.5-90.5
		c0-49.9-40.6-90.5-90.5-90.5c-49.9,0-90.5,40.6-90.5,90.5C119,259.4,159.6,300,209.5,300 M19,0C14,0,9.1,2,5.6,5.6C2,9.1,0,14,0,19
		l0.3,323.5c0,5,2,9.9,5.6,13.4l438.4,438.4c3.6,3.6,8.4,5.6,13.4,5.6c5.1,0,9.9-2,13.5-5.6l323.2-323.2c3.6-3.6,5.6-8.4,5.6-13.5
		c0-5-2-9.9-5.6-13.4L356,5.8c-3.6-3.5-8.4-5.6-13.4-5.6L19,0L19,0z M209.5,266.7c-31.5,0-57.1-25.6-57.1-57.1
		c0-31.5,25.6-57.1,57.1-57.1c31.5,0,57.1,25.6,57.1,57.1C266.7,241,241,266.7,209.5,266.7L209.5,266.7z"/>
</g>
</svg>
