<?xml version="1.0" encoding="utf-8"?>
<!-- Generator: Adobe Illustrator 18.1.1, SVG Export Plug-In . SVG Version: 6.00 Build 0)  -->
<svg version="1.1" id="Layer_1" xmlns="http://www.w3.org/2000/svg" xmlns:xlink="http://www.w3.org/1999/xlink" x="0px" y="0px"
	 width="800px" height="800px" viewBox="-199 201 800 800" enable-background="new -199 201 800 800" xml:space="preserve">
<g id="_x32_u9rAU_2_">
	<g>
		<path d="M360.6,321.3c4.1,1.4,0.7,5.9,0,7.3c-3.2,6.8-11.7,11.5-17,15.8c8.7-2.7,16.6-6.2,27.3-8.5c8.5-1.8,26-4.6,27.9,4.2
			c2.6,11.5-17.8,18.6-26.7,21.9c-13.5,4.9-25,7.2-38.2,10.3c99.7,9.4,149.2,68.9,170.5,156.6c26.9,7.7,70.5,9.2,93.5-3
			c-3.7,15.8-17.1,26.1-31.6,32.8c-14.8,6.9-33.5,10.6-52.8,12.1c22.1,9.7,56.8,13.6,87.4,9.1c0.8,3.3-3.3,5.3-5.5,7.3
			c-18.5,17.4-51.3,32.4-88.6,27.3c-40.4,143.8-149.2,229.5-305.9,257.9c-41.9,7.6-88.5,10.7-130.5,6.1
			C-54.1,864.7-138.4,803.7-199,725.5c1.5-0.9,4.4,2.4,6.7,4.2c33.1,26.5,83.5,52.3,145.1,47.9c63.6-4.5,106.9-33.5,142.6-64.9
			c-25.5,1.5-57-7.7-57.7-32.8c-0.5-18.1,15.7-27.7,29.1-35.2c-47.2,1.1-78.6-18.9-95.3-50.4c9.8-15.1,28.7-21,51.6-23.1
			c-43.5-12.5-79.6-32.4-86.2-81.9c13.9-2.8,28.7-4.8,44.3-6.1c-30.8-21.6-64.7-45.4-63.7-100.7c48.7,17.9,97.3,39.3,143.8,60.7
			C108,464.8,153.1,487,185.2,524c13.2-39.2,30.5-77.1,50.4-111.1c19.6-33.5,41.7-66,75.2-84.4c-0.4,7.4-4.4,11.4-6.7,17
			C319.3,336.3,337.4,324.7,360.6,321.3z"/>
	</g>
</g>
</svg>
